<svg xmlns="http://www.w3.org/2000/svg" width="40.758" height="48.645" viewBox="0 0 40.758 48.645">
    <defs>
        <style>
            .cls-cart-icon-active-1{
                fill:none;
                stroke: currentColor;
                stroke-linecap:round;
                stroke-width:2px
            }
            .cls-cart-icon-active-2,.cls-cart-icon-active-3{
                stroke:none;
            }
            .cls-cart-icon-active-2{
                fill: currentColor;
            }
            .cls-cart-icon-active-3{
                fill: transparent;
            }
        </style>
    </defs>
    <g id="Group_273" data-name="Group 273" transform="translate(0 1)">
        <g id="Path_3237" data-name="Path 3237">
            <path d="M32.636 38.241H3.63c-2.674 0-4.852-2.342-4.876-5.23L1.958 1h31.989l3.565 32.016c-.027 2.886-2.204 5.225-4.876 5.225z" class="cls-cart-icon-active-2" transform="translate(2.246 8.404)"/>
            <path d="M2.863 2L-.245 33.054C-.201 35.37 1.52 37.24 3.63 37.24h29.006c2.107 0 3.826-1.864 3.875-4.177L33.052 2H2.863m-1.81-2h33.789l3.67 32.963c0 3.467-2.63 6.278-5.876 6.278H3.63c-3.245 0-5.876-2.81-5.876-6.278L1.054 0z" class="cls-cart-icon-active-3" transform="translate(2.246 8.404)"/>
        </g>
        <path id="Path_3238" d="M7712.17 10410.346s-.6-13.359 7.354-13.359 7.472 13.359 7.472 13.359" class="cls-cart-icon-active-1" data-name="Path 3238" transform="translate(-7699.199 -10396.986)"/>
    </g>
</svg>
