<svg xmlns="http://www.w3.org/2000/svg" width="25.657" height="30.992" viewBox="0 0 25.657 30.992"><defs><style>.a,.b{fill:none;}.b{stroke:#000;stroke-linecap:round;stroke-width:2px;}.c,.d{stroke:none;}</style></defs><g transform="translate(0 1)"><g class="a" transform="translate(2.246 5.29)"><path class="c" d="M-.169,0H21.1l2.311,20.75a3.832,3.832,0,0,1-3.7,3.952H1.453a3.832,3.832,0,0,1-3.7-3.952Z"/><path class="d" d="M 1.640779495239258 2 L -0.244537353515625 20.8339729309082 C -0.2060604095458984 21.87161827087402 0.5406131744384766 22.70207977294922 1.452922821044922 22.70207977294922 L 19.71184158325195 22.70207977294922 C 20.6213493347168 22.70207977294922 21.36624336242676 21.8765754699707 21.40893173217773 20.8433895111084 L 19.3106803894043 2 L 1.640779495239258 2 M -0.1690082550048828 0 L 21.10033226013184 0 L 23.41086196899414 20.7497501373291 C 23.41086196899414 22.93255996704102 21.75475311279297 24.70208168029785 19.71184158325195 24.70208168029785 L 1.452922821044922 24.70208168029785 C -0.5899887084960938 24.70208168029785 -2.246097564697266 22.93255996704102 -2.246097564697266 20.7497501373291 L -0.1690082550048828 0 Z"/></g><path class="b" d="M7712.166,10405.4s-.38-8.409,4.63-8.409,4.7,8.409,4.7,8.409" transform="translate(-7704.001 -10396.986)"/></g></svg>