<svg xmlns="http://www.w3.org/2000/svg" xmlns:xlink="http://www.w3.org/1999/xlink" width="147.062" height="176.859" viewBox="0 0 147.062 176.859"><defs><style>.a{fill:url(#a);}</style><linearGradient id="a" x1="-0.507" y1="0.597" x2="1" y2="0.837" gradientUnits="objectBoundingBox"><stop offset="0" stop-color="#cfa564"/><stop offset="0.297" stop-color="#d8ac68"/><stop offset="0.519" stop-color="#ecca95"/><stop offset="0.648" stop-color="#dbb377"/><stop offset="0.828" stop-color="#b48e55"/><stop offset="1" stop-color="#cfa564"/></linearGradient></defs><g transform="translate(-80 -6363.521)"><g transform="translate(80 6491.75)"><g transform="translate(0 0)"><path d="M1154.329,213.29v23.8h.064a12.192,12.192,0,0,1,4.877-6.29,13.683,13.683,0,0,1,7.864-2.432,15.324,15.324,0,0,1,11.231,4.815,17.273,17.273,0,0,1-.031,23.894,15.448,15.448,0,0,1-11.327,4.847,14,14,0,0,1-7.96-2.464,12.562,12.562,0,0,1-5.036-6.322h-.064l-.19,7.976h-4.7V213.29Zm3.448,40.315a11.607,11.607,0,0,0,16.648,0,12.188,12.188,0,0,0,0-16.989,11.609,11.609,0,0,0-16.648,0,12.188,12.188,0,0,0,0,16.989Z" transform="translate(-1149.055 -213.29)"/><path d="M1214.048,261.809a13.91,13.91,0,0,0,6.355-1.459,8.38,8.38,0,0,0,4-3.793h5.179a14.4,14.4,0,0,1-6.068,7.116,17.977,17.977,0,0,1-9.723,2.74,16.737,16.737,0,0,1-12.169-4.847,16.68,16.68,0,0,1,11.85-28.709,15.523,15.523,0,0,1,12.264,5.285,19.188,19.188,0,0,1,4.639,13.131h-28.5a11.513,11.513,0,0,0,3.955,7.618A12.144,12.144,0,0,0,1214.048,261.809Zm-.573-24.413a11.174,11.174,0,0,0-11.532,9.759h23.035a11.5,11.5,0,0,0-3.813-7.1A11.358,11.358,0,0,0,1213.475,237.4Z" transform="translate(-1159.145 -217.781)"/><path d="M1246.8,265.6v-32h4.7l.254,8.105h.064a12.933,12.933,0,0,1,4.558-6.387,11.57,11.57,0,0,1,7.133-2.464,13,13,0,0,1,10.231,4.426,16.21,16.21,0,0,1,3.908,11.137V265.6h-5.274V248.873a11.64,11.64,0,0,0-2.86-7.96,9.475,9.475,0,0,0-14.44.162,11.989,11.989,0,0,0-3,8.186V265.6Z" transform="translate(-1169.811 -217.781)"/><path d="M1310.265,261.809a13.909,13.909,0,0,0,6.355-1.459,8.389,8.389,0,0,0,4-3.793h5.178a14.414,14.414,0,0,1-6.068,7.116,17.977,17.977,0,0,1-9.723,2.74,16.738,16.738,0,0,1-12.169-4.847,16.68,16.68,0,0,1,11.852-28.709,15.523,15.523,0,0,1,12.264,5.285,19.188,19.188,0,0,1,4.639,13.131h-28.5a11.524,11.524,0,0,0,3.956,7.618A12.146,12.146,0,0,0,1310.265,261.809Zm-.571-24.413a11.175,11.175,0,0,0-11.534,9.759h23.035a11.507,11.507,0,0,0-3.812-7.1A11.357,11.357,0,0,0,1309.694,237.4Z" transform="translate(-1179.534 -217.781)"/><path d="M1321.917,217.5l3.429,2.46-7.91,6.054-3.221-.539Zm6.235,9.293" transform="translate(-1184.43 -214.256)"/></g></g><g transform="translate(117.65 6363.521)"><g transform="translate(0 0)"><path class="a" d="M1236.918,184.842c40.089-4.552,43.05-39.851,43.05-39.851C1247.543,145.974,1236.918,184.842,1236.918,184.842Z" transform="translate(-1208.876 -80.097)"/><path class="a" d="M1217.907,154.341s36.042-52.191,0-94.79C1217.9,59.548,1177.611,97.832,1217.907,154.341Z" transform="translate(-1199.997 -59.551)"/></g></g></g></svg>