<svg xmlns="http://www.w3.org/2000/svg" width="26.142" height="26" viewBox="0 0 26.142 26"><defs>
    <style>.a,.b,.d{fill:none;}
    .a{stroke:currentColor;stroke-width:2px;}
    .c{stroke:none;}
    .e{stroke:currentColor;}
    </style></defs><g transform="translate(0 -2)"><g class="a" transform="translate(6.509 2)"><circle class="c" cx="7" cy="7" r="7"/><circle class="d" cx="7" cy="7" r="6"/></g><g class="b" transform="translate(0 17.592)"><path class="c" d="M13.071,0C20.29,0,26.142,3.473,26.142,7.757S20.29,9.845,13.071,9.845,0,12.041,0,7.757,5.852,0,13.071,0Z"/><path class="e" d="M 13.07117462158203 1.999998092651367 C 9.979084014892578 1.999998092651367 6.982254028320313 2.726007461547852 4.849124908447266 3.991877555847168 C 3.03846549987793 5.066377639770508 1.999994277954102 6.438657760620117 1.999994277954102 7.756847858428955 C 1.999994277954102 7.993000984191895 2.031925201416016 8.124832153320313 2.050212860107422 8.172247886657715 C 2.119844436645508 8.217658042907715 2.486423492431641 8.407757759094238 3.741064071655273 8.407757759094238 C 4.709564208984375 8.407757759094238 5.883054733276367 8.302097320556641 7.241825103759766 8.179747581481934 C 8.983573913574219 8.022917747497559 10.95771503448486 7.845167636871338 13.07117462158203 7.845167636871338 C 15.18493461608887 7.845167636871338 17.15903472900391 8.022928237915039 18.90076446533203 8.179758071899414 C 20.25941467285156 8.302097320556641 21.43278503417969 8.407757759094238 22.40128517150879 8.407757759094238 C 23.65641784667969 8.407757759094238 24.02272033691406 8.217373847961426 24.09211730957031 8.172029495239258 C 24.11039161682129 8.124712944030762 24.1423454284668 7.992964744567871 24.1423454284668 7.756847858428955 C 24.1423454284668 6.438657760620117 23.10387420654297 5.066377639770508 21.29321479797363 3.991877555847168 C 19.16008377075195 2.726007461547852 16.16326522827148 1.999998092651367 13.07117462158203 1.999998092651367 M 13.07117462158203 -1.9073486328125e-06 C 20.29018402099609 -1.9073486328125e-06 26.1423454284668 3.472857475280762 26.1423454284668 7.756847858428955 C 26.1423454284668 9.872172355651855 24.71496963500977 10.40775394439697 22.40128326416016 10.40775394439697 C 20.02925300598145 10.40775394439697 16.72562217712402 9.84516716003418 13.07117462158203 9.84516716003418 C 9.417167663574219 9.84516716003418 6.113031387329102 10.40775394439697 3.741060256958008 10.40775394439697 C 1.42686653137207 10.40775394439697 -5.7220458984375e-06 9.872433662414551 -5.7220458984375e-06 7.756847858428955 C -5.7220458984375e-06 3.472857475280762 5.852165222167969 -1.9073486328125e-06 13.07117462158203 -1.9073486328125e-06 Z"/></g></g></svg>