<?xml version="1.0" encoding="utf-8"?>
<!-- Generator: Adobe Illustrator 21.1.0, SVG Export Plug-In . SVG Version: 6.00 Build 0)  -->
<svg version="1.1" id="Layer_1" xmlns="http://www.w3.org/2000/svg" xmlns:xlink="http://www.w3.org/1999/xlink" x="0px" y="0px"
	 viewBox="0 0 93 105" style="enable-background:new 0 0 93 105;" xml:space="preserve">
<style type="text/css">
	.st0{fill:#7C7C7C;}
	.svg-fill{fill:#07462A;}
	.st2{fill:#565656;}
	.st3{fill:none;}
</style>
<rect x="-114" y="95" class="st0" width="25" height="10"/>
<g>
	<rect x="-144" y="95" class="svg-fill" width="25" height="10"/>
</g>
<rect x="-84" y="95" class="st2" width="25" height="10"/>
<path class="st3" d="M51.7,35.4L51.7,35.4c-0.9-2.3-2.3-4.2-3.9-5.9l-0.1-0.1c-1.7-1.7-3.7-3-5.9-3.9c-2.1-0.9-4.5-1.4-6.9-1.4
	c-5,0-9.6,2-12.8,5.3c-1.7,1.7-3,3.7-4,5.9c-0.9,2.1-1.4,4.5-1.4,6.9c0,2.4,0.5,4.7,1.3,6.8l0,0.1c0.9,2.2,2.3,4.2,4,5.9
	c1.7,1.7,3.7,3,5.9,3.9v0c2.1,0.9,4.5,1.4,6.9,1.4c2.5,0,4.8-0.5,6.9-1.4c2.2-0.9,4.2-2.3,5.9-3.9l0,0h0c1.7-1.7,3-3.7,3.9-5.9
	c0.9-2.1,1.4-4.5,1.4-6.9C53.1,39.8,52.6,37.5,51.7,35.4z M30.3,31.2c-0.7,0.3-1.4,0.7-2,1.1c-0.6,0.4-1.2,0.9-1.8,1.5
	c-0.5,0.5-1,1.1-1.5,1.8c-0.4,0.6-0.8,1.3-1.1,2c-0.3,0.6-1,0.9-1.6,0.7c-0.6-0.3-0.9-1-0.6-1.6c0.4-0.8,0.8-1.7,1.3-2.4
	c0.5-0.8,1.1-1.5,1.8-2.2c0.7-0.6,1.4-1.2,2.1-1.8c0.8-0.5,1.6-1,2.4-1.3c0.6-0.3,1.3,0,1.6,0.7C31.2,30.3,30.9,31,30.3,31.2z
	 M48.2,47.7L48.2,47.7c-0.7,1.7-1.8,3.3-3.1,4.7c-1.4,1.4-3,2.4-4.7,3.1c-1.8,0.7-3.6,1.1-5.5,1.1c-0.7,0-1.2-0.5-1.2-1.2
	c0-0.7,0.5-1.2,1.2-1.2c1.6,0,3.1-0.3,4.6-0.9c1.4-0.6,2.7-1.4,3.9-2.6c1.1-1.1,2-2.4,2.6-3.8l0-0.1c0.6-1.5,0.9-3,0.9-4.6
	c0-0.7,0.5-1.2,1.2-1.2c0.7,0,1.2,0.6,1.2,1.2C49.3,44.1,48.9,46,48.2,47.7z"/>
<path class="st3" d="M78.2,85.5c-0.8,0.8-2.1,0.8-2.9,0l-3.8-3.8l0,0L49.1,59.3c-1.7,1.4-3.6,2.6-5.7,3.4c-2.6,1.1-5.5,1.7-8.5,1.7
	c-3,0-5.9-0.6-8.5-1.7h0c-2.7-1.1-5.2-2.8-7.2-4.8l0,0c-2-2.1-3.7-4.5-4.8-7.2l0-0.1c-1.1-2.6-1.6-5.4-1.6-8.4c0-3,0.6-5.9,1.7-8.5
	c1.1-2.7,2.8-5.2,4.8-7.2c4-4,9.6-6.5,15.7-6.5c3,0,5.9,0.6,8.5,1.7h0c2.7,1.1,5.2,2.8,7.2,4.8l0.1,0.1c2,2,3.6,4.4,4.7,7.1l0,0.1
	c1.1,2.6,1.7,5.4,1.7,8.4c0,3-0.6,5.9-1.7,8.5c-0.9,2.1-2,4-3.5,5.7l22.3,22.4c0,0,0,0,0,0l3.8,3.8C79,83.4,79,84.7,78.2,85.5z"/>
<g>
	<path class="svg-fill" d="M29.3,29c-0.9,0.4-1.7,0.8-2.4,1.3c-0.8,0.5-1.5,1.1-2.1,1.8c-0.7,0.7-1.3,1.4-1.8,2.2c-0.5,0.8-1,1.6-1.3,2.4
		c-0.3,0.6,0,1.3,0.6,1.6c0.6,0.3,1.3,0,1.6-0.7c0.3-0.7,0.7-1.4,1.1-2c0.4-0.7,0.9-1.2,1.5-1.8c0.5-0.6,1.1-1,1.8-1.5
		c0.6-0.4,1.3-0.8,2-1.1c0.6-0.3,0.9-1,0.7-1.6C30.7,29,29.9,28.7,29.3,29z"/>
</g>
<g>
	<path class="svg-fill" d="M48.1,41c-0.7,0-1.2,0.6-1.2,1.2c0,1.6-0.3,3.1-0.9,4.6l0,0.1c-0.6,1.4-1.4,2.7-2.6,3.8
		c-1.2,1.2-2.5,2-3.9,2.6c-1.5,0.6-3,0.9-4.6,0.9c-0.7,0-1.2,0.5-1.2,1.2c0,0.7,0.5,1.2,1.2,1.2c1.9,0,3.7-0.4,5.5-1.1
		c1.7-0.7,3.3-1.7,4.7-3.1c1.4-1.4,2.4-2.9,3.1-4.6l0-0.1c0.7-1.8,1.1-3.6,1.1-5.5C49.3,41.5,48.8,41,48.1,41z"/>
</g>
<g>
	<g>
		<path class="svg-fill" d="M74.3,78.8C74.3,78.8,74.3,78.8,74.3,78.8L52,56.5c1.4-1.7,2.6-3.6,3.5-5.7c1.1-2.6,1.7-5.5,1.7-8.5
			c0-3-0.6-5.8-1.7-8.4l0-0.1c-1.1-2.7-2.7-5.1-4.7-7.1l-0.1-0.1c-2-2-4.5-3.7-7.2-4.8h0c-2.6-1.1-5.5-1.7-8.5-1.7
			c-6.1,0-11.7,2.5-15.7,6.5c-2,2-3.7,4.5-4.8,7.2c-1.1,2.6-1.7,5.5-1.7,8.5c0,3,0.6,5.8,1.6,8.4l0,0.1c1.1,2.7,2.8,5.2,4.8,7.2l0,0
			c2.1,2.1,4.5,3.7,7.2,4.8h0c2.6,1.1,5.5,1.7,8.5,1.7c3,0,5.9-0.6,8.5-1.7c2.1-0.9,4-2,5.7-3.4l22.4,22.4l0,0l3.8,3.8
			c0.8,0.8,2.1,0.8,2.9,0c0.8-0.8,0.8-2.1,0-2.9L74.3,78.8z M47.8,55.1L47.8,55.1L47.8,55.1c-1.7,1.7-3.7,3-5.9,3.9
			c-2.1,0.9-4.5,1.4-6.9,1.4c-2.5,0-4.8-0.5-6.9-1.4v0c-2.2-0.9-4.2-2.3-5.9-3.9c-1.7-1.7-3-3.7-4-5.9l0-0.1
			c-0.9-2.1-1.3-4.4-1.3-6.8c0-2.5,0.5-4.8,1.4-6.9c0.9-2.2,2.3-4.2,4-5.9c3.3-3.3,7.8-5.3,12.8-5.3c2.5,0,4.8,0.5,6.9,1.4
			c2.2,0.9,4.2,2.3,5.9,3.9l0.1,0.1c1.6,1.6,2.9,3.6,3.9,5.8l0,0.1c0.9,2.1,1.3,4.4,1.3,6.9c0,2.5-0.5,4.8-1.4,6.9
			C50.8,51.4,49.4,53.4,47.8,55.1z"/>
	</g>
</g>
</svg>
