<?xml version="1.0" encoding="utf-8"?>
<!-- Generator: Adobe Illustrator 21.1.0, SVG Export Plug-In . SVG Version: 6.00 Build 0)  -->
<svg version="1.1" id="Layer_1" xmlns="http://www.w3.org/2000/svg" xmlns:xlink="http://www.w3.org/1999/xlink" x="0px" y="0px"
	 viewBox="0 0 93 105" style="enable-background:new 0 0 93 105;" xml:space="preserve">
<style type="text/css">
	.st0{fill:#7C7C7C;}
	.svg-fill{fill:#07462A;}
	.st2{fill:#565656;}
</style>
<rect x="-114" y="95" class="st0" width="25" height="10"/>
<g>
	<rect x="-144" y="95" class="svg-fill" width="25" height="10"/>
</g>
<rect x="-84" y="95" class="st2" width="25" height="10"/>
<g>
	<g>
		<g>
			<path class="svg-fill" d="M57.5,83.4c-4.9,0-9.5-1.9-13-5.4L21.9,55.5c-3.5-3.5-5.4-8.1-5.4-13c0-4.9,1.9-9.5,5.4-13
				c3.5-3.5,8.1-5.4,13-5.4c0,0,0,0,0,0c4.9,0,9.5,1.9,13,5.4l22.6,22.6c3.5,3.5,5.4,8.1,5.4,13s-1.9,9.5-5.4,13
				C67,81.5,62.4,83.4,57.5,83.4z M34.9,27.2c-4.1,0-7.9,1.6-10.8,4.5c-2.9,2.9-4.5,6.7-4.5,10.8s1.6,7.9,4.5,10.8l22.6,22.6
				c2.9,2.9,6.7,4.5,10.8,4.5c4.1,0,8-1.6,10.8-4.5c2.9-2.9,4.5-6.7,4.5-10.8c0-4.1-1.6-8-4.5-10.8L45.7,31.7
				C42.8,28.8,39,27.2,34.9,27.2C34.9,27.2,34.9,27.2,34.9,27.2z"/>
			<path class="svg-fill" d="M63.7,60.3c-0.3,0-0.5-0.1-0.7-0.3l-21-21c-1.3-1.3-2.8-2.2-4.3-2.8c-1-0.3-1.9-0.5-2.8-0.5
				c-1.8,0-3.5,0.7-4.8,2c-0.4,0.4-1,0.4-1.4,0c-0.4-0.4-0.4-1,0-1.4c1.7-1.7,3.9-2.6,6.2-2.6c1.1,0,2.2,0.2,3.4,0.6
				c1.8,0.6,3.5,1.7,5,3.3l21,21c0.4,0.4,0.4,1,0,1.4C64.2,60.2,63.9,60.3,63.7,60.3z"/>
			<path class="svg-fill" d="M32.3,65.2c-0.7,0-1.3-0.5-1.5-1.1c-0.2-0.8,0.3-1.6,1.1-1.8c3.7-0.9,9-4.5,13.6-9.1c4.5-4.5,7.9-9.4,9-13.2
				c0.2-0.8,1.1-1.2,1.9-1c0.8,0.2,1.2,1.1,1,1.9c-1.3,4.2-4.9,9.6-9.7,14.4c-5.1,5.1-10.8,8.9-15,9.9
				C32.5,65.2,32.4,65.2,32.3,65.2z"/>
		</g>
	</g>
</g>
</svg>
