<?xml version="1.0" encoding="utf-8"?>
<!-- Generator: Adobe Illustrator 21.1.0, SVG Export Plug-In . SVG Version: 6.00 Build 0)  -->
<svg version="1.1" id="Layer_1" xmlns="http://www.w3.org/2000/svg" xmlns:xlink="http://www.w3.org/1999/xlink" x="0px" y="0px"
	 viewBox="0 0 93 105" style="enable-background:new 0 0 93 105;" xml:space="preserve">
<style type="text/css">
	.st0{fill:#7C7C7C;}
	.svg-fill{fill:#07462A;}
	.st2{fill:#565656;}
</style>
<rect x="-114" y="95" class="st0" width="25" height="10"/>
<g>
	<rect x="-144" y="95" class="svg-fill" width="25" height="10"/>
</g>
<rect x="-84" y="95" class="st2" width="25" height="10"/>
<g>
	<g>
		<g>
			<g>
				<g>
					<g>
						<path class="svg-fill" d="M34.2,89.4c-2.6,0-5.2-0.4-7.8-1.2c-4.7-1.5-9.1-4.3-12.6-8.2c-1.7-1.9-3.7-4.4-4.3-7.5
							c-0.4-2-0.3-4.3,0.5-6.7c1.7-5.5,5.6-10.2,8.8-13.6c4.3-4.6,8.8-8.4,13.3-11.2c2.5-1.5,4.6-2.5,6.6-3.1
							c2.3-0.6,4.5-0.5,6.7,0.2c2.3,0.8,4.5,2.3,6.8,4.5c2,2,3.7,4.1,5,6.3c5.3,9,5,20.3-0.7,28.7l0,0c-0.9,1.3-1.9,2.5-2.9,3.5
							C48.4,86.5,41.3,89.4,34.2,89.4z M41.7,40.6c-0.7,0-1.5,0.1-2.2,0.3c-1.8,0.5-3.6,1.3-5.8,2.7c-4.3,2.7-8.5,6.3-12.7,10.7
							c-3,3.2-6.6,7.5-8.1,12.5c-0.6,1.9-0.7,3.7-0.4,5.2c0.5,2.4,2.2,4.5,3.6,6.1c3.1,3.5,7,6,11.3,7.3c8.4,2.6,17.9,0.2,24.1-6.2
							c0.9-0.9,1.8-2,2.6-3.2c5.1-7.4,5.3-17.4,0.6-25.4c-1.2-2-2.7-3.9-4.5-5.7c-2-1.9-3.8-3.1-5.7-3.8
							C43.5,40.7,42.6,40.6,41.7,40.6z"/>
					</g>
				</g>
			</g>
		</g>
	</g>
	<path class="svg-fill" d="M42.2,45.2L42.2,45.2c0.1,0,0.2,0,0.2,0c0.3,1.3-2.1,7.3-10.1,15.2c-6.5,6.5-12.6,10-15.1,10
		c-0.1,0-0.2,0-0.2,0c-0.3-1.3,2.1-7.3,10.1-15.2C33.6,48.7,39.7,45.2,42.2,45.2 M42.2,43.2c-3.4,0-10,4.1-16.5,10.5
		c-7.8,7.7-12.3,15.8-10.1,18.1c0.4,0.4,1,0.6,1.7,0.6c3.4,0,10-4.1,16.5-10.5c7.8-7.7,12.3-15.8,10.1-18.1
		C43.5,43.4,42.9,43.2,42.2,43.2L42.2,43.2z"/>
	<path class="svg-fill" d="M56.1,85.1c-2.3,0-4.7-0.3-6.9-0.9l0.8-2.9c2,0.5,4.1,0.8,6.1,0.8c13.3,0,24.2-10.9,24.2-24.2
		c0-6.9-2.4-13-7-17.8c-1.8-1.8-3.8-3.4-5.9-5c-2.3-1.8-4.8-3.8-6.9-6.1c-0.8-0.9-1.4-1.7-2-2.5c-0.2-0.3-0.4-0.7-0.6-1.1
		c-0.2-0.4-0.5-1-0.7-1.2c-0.8-0.4-2-0.3-2.3,0.2c-1.5,2.7-3.1,4.6-5.4,6.5c-1.2,1-2.5,1.9-3.7,2.9c-0.9,0.7-1.9,1.4-2.8,2.2
		c-2,1.6-3.6,3.1-5,4.7c-0.2,0.2-0.2,0.3-0.4,0.4l-0.2,0.3l-2.3-1.9l0.2-0.2c0.1-0.2,0.2-0.3,0.5-0.6c1.5-1.8,3.3-3.4,5.4-5.1
		c0.9-0.8,1.9-1.5,2.9-2.2c1.2-0.9,2.4-1.8,3.6-2.8c2-1.7,3.4-3.4,4.7-5.7c1.2-2.1,4.1-2.4,6.2-1.4c1.1,0.5,1.6,1.7,2.1,2.6
		c0.1,0.3,0.3,0.6,0.4,0.7c0.5,0.7,1,1.4,1.7,2.1c1.9,2.1,4.1,3.9,6.5,5.7c2.1,1.6,4.2,3.3,6.2,5.3c5.2,5.3,7.9,12.2,7.9,19.9
		C83.3,72.9,71.1,85.1,56.1,85.1z"/>
	<path class="svg-fill" d="M16.9,80c-2.5,0-4.2-1.7-5.3-2.9l-0.3-0.3l2.1-2.1l0.3,0.3c1.3,1.3,2.2,2.1,3.5,2c0.5-0.1,1.3-0.7,2.1-1.2
		c0.8-0.6,1.7-1.3,2.7-1.8c0.9-0.4,1.9-0.5,2.9-0.6c1.1-0.1,2.1-0.3,2.8-0.7c0.5-0.4,1-1.1,1.6-1.9c0.6-0.9,1.2-1.9,2.2-2.7
		c0.9-0.7,1.9-1.1,2.9-1.5c0.9-0.4,1.8-0.7,2.4-1.3c0.6-0.6,0.9-1.5,1.3-2.4c0.4-1,0.8-2,1.5-2.9c0.8-0.9,1.8-1.6,2.7-2.2
		c0.8-0.5,1.6-1,1.9-1.6c0.5-0.7,0.6-1.8,0.7-2.8c0.1-1,0.3-2,0.7-2.9c0.5-1.1,1.2-2,1.8-2.8c0.6-0.8,1.2-1.5,1.2-2.1
		c0.2-1.4-0.7-2.3-1.9-3.6l-0.3-0.3l2.1-2.1l0.3,0.3c1.3,1.3,3.1,3.2,2.8,6.1c-0.2,1.4-1,2.5-1.8,3.6c-0.5,0.7-1.1,1.4-1.4,2.1
		c-0.2,0.5-0.3,1.3-0.4,2.1c-0.2,1.3-0.4,2.8-1.2,4.1c-0.7,1.1-1.8,1.8-2.8,2.5c-0.8,0.5-1.5,1-2,1.5c-0.4,0.5-0.7,1.3-1,2.1
		c-0.4,1.2-0.9,2.5-1.9,3.5c-1,1-2.3,1.5-3.4,1.9c-0.8,0.3-1.6,0.6-2,1c-0.6,0.5-1,1.2-1.5,2c-0.7,1-1.4,2.1-2.5,2.8
		c-1.3,0.8-2.8,1-4.1,1.2c-0.8,0.1-1.5,0.2-2,0.4c-0.7,0.3-1.4,0.9-2.1,1.4C20,79,18.9,79.8,17.5,80C17.3,80,17.1,80,16.9,80z"/>
</g>
</svg>
