<?xml version="1.0" encoding="utf-8"?>
<!-- Generator: Adobe Illustrator 21.1.0, SVG Export Plug-In . SVG Version: 6.00 Build 0)  -->
<svg version="1.1" id="Layer_1" xmlns="http://www.w3.org/2000/svg" xmlns:xlink="http://www.w3.org/1999/xlink" x="0px" y="0px"
	 viewBox="0 0 93 105" style="enable-background:new 0 0 93 105;" xml:space="preserve">
<style type="text/css">
	.st0{fill:#7C7C7C;}
	.svg-fill{fill:#07462A;}
	.st2{fill:#565656;}
</style>
<rect x="-114" y="95" class="st0" width="25" height="10"/>
<g>
	<rect x="-144" y="95" class="svg-fill" width="25" height="10"/>
</g>
<rect x="-84" y="95" class="st2" width="25" height="10"/>
<g>
	<path class="svg-fill" d="M46.8,14.1c0.4,0,0.8,0,1.1,0.1c1.2,0.3,2.2,0.9,3.2,1.6c1.1,0.7,2.1,1.5,3.3,2.2c1.1,0.6,2.3,1,3.5,1.4
		c2.2,0.6,5,1,6.6,2.8c1.6,1.9,1.6,4.8,2.2,7.1c0.3,1.2,0.7,2.4,1.3,3.5c0.7,1.2,1.4,2.3,2,3.5c0.6,1.1,1,2.3,1,3.5
		c0,2.6-2.1,4.6-3.4,6.6c-1.4,2.2-1.9,4.7-2.6,7.1c-0.3,1.1-0.7,2.2-1.4,3.1c-0.8,0.9-1.9,1.5-3,1.8c-2.5,0.7-5.1,0.8-7.5,1.9
		c-2.3,1.1-4.4,3-6.9,3.4c-0.2,0-0.4,0-0.7,0c-2.3,0-4.3-1.6-6.1-2.9c-1.1-0.7-2.1-1.4-3.4-1.9c-1.2-0.4-2.4-0.7-3.6-1
		c-2.3-0.6-4.6-1.4-5.6-3.8c-1-2.4-0.9-5.1-1.8-7.5c-1-2.5-2.9-4.5-3.6-7.1c-0.7-2.6,0.7-4.8,2.1-6.8c0.7-1,1.4-2,2-3.1
		c0.6-1.2,0.9-2.4,1.2-3.7c0.6-2.2,1.1-4.8,3.3-6.1c2.2-1.2,4.9-1.2,7.3-1.9c2.6-0.7,4.6-2.5,7-3.5C45.1,14.3,46,14.1,46.8,14.1
		 M46.8,11.1L46.8,11.1c-1.2,0-2.4,0.3-3.7,0.8c-1.2,0.5-2.3,1.1-3.3,1.8c-1.2,0.7-2.3,1.4-3.4,1.7c-0.7,0.2-1.5,0.3-2.4,0.5
		c-1.8,0.3-3.7,0.6-5.6,1.7c-3.2,1.8-4,5.1-4.6,7.5l-0.1,0.4c-0.3,1.1-0.6,2.2-1,3.1c-0.4,0.8-0.9,1.5-1.5,2.4l-0.2,0.3
		c-1.5,2.1-3.7,5.3-2.6,9.3c0.5,1.8,1.4,3.3,2.2,4.7c0.6,0.9,1.1,1.8,1.4,2.7c0.3,0.9,0.5,1.9,0.7,3.1c0.2,1.4,0.5,3,1.2,4.5
		c1.7,4,5.5,5,7.6,5.5l0.7,0.2c0.9,0.2,1.8,0.5,2.5,0.7c0.8,0.3,1.6,0.8,2.7,1.5c0.2,0.1,0.4,0.3,0.6,0.4c1.9,1.3,4.2,3,7.2,3
		c0.4,0,0.7,0,1.1-0.1c2.3-0.3,4.2-1.5,5.8-2.5c0.7-0.4,1.4-0.8,2-1.1c1.1-0.5,2.4-0.8,3.9-1c1-0.2,2.1-0.4,3.2-0.7
		c2-0.6,3.4-1.5,4.5-2.8c1.1-1.3,1.6-2.8,2-4.1c0.2-0.5,0.3-1,0.4-1.6c0.5-1.8,0.9-3.4,1.8-4.8c0.3-0.4,0.6-0.8,0.9-1.3
		c1.3-1.8,3-4,3-7c0-1.6-0.4-3.2-1.3-4.9c-0.4-0.8-0.8-1.5-1.2-2.1c-0.3-0.5-0.6-1-0.9-1.5c-0.5-0.9-0.8-1.8-1-2.7
		c-0.1-0.5-0.2-1.1-0.3-1.7c-0.3-2.1-0.8-4.6-2.5-6.7c-1.9-2.3-4.7-3-6.9-3.5c-0.4-0.1-0.8-0.2-1.2-0.3c-1.2-0.3-2.1-0.7-2.8-1.1
		c-0.6-0.4-1.3-0.8-1.9-1.3c-0.4-0.3-0.8-0.5-1.2-0.8c-1.2-0.8-2.6-1.6-4.2-2C48.1,11.2,47.5,11.1,46.8,11.1L46.8,11.1z"/>
</g>
<path class="svg-fill" d="M29.1,93.8l0-34.7c0-0.6,0.4-1,1-1h0c0.6,0,1,0.4,1,1l0,31.1l14.8-9.2l15.6,9.3V59.3c0-0.6,0.4-1,1-1s1,0.4,1,1
	v34.4L45.9,83.3L29.1,93.8z"/>
<path class="svg-fill" d="M46.2,56.4c-9.6,0-17.4-7.8-17.4-17.4c0-9.6,7.8-17.4,17.4-17.4c9.6,0,17.4,7.8,17.4,17.4
	C63.5,48.6,55.7,56.4,46.2,56.4z M46.2,23.6c-8.5,0-15.4,6.9-15.4,15.4s6.9,15.4,15.4,15.4S61.5,47.5,61.5,39S54.6,23.6,46.2,23.6z"
	/>
</svg>
