<?xml version="1.0" encoding="utf-8"?>
<!-- Generator: Adobe Illustrator 22.1.0, SVG Export Plug-In . SVG Version: 6.00 Build 0)  -->
<svg version="1.1" id="Layer_1" xmlns="http://www.w3.org/2000/svg" xmlns:xlink="http://www.w3.org/1999/xlink" x="0px" y="0px"
	 viewBox="0 0 640 640" style="enable-background:new 0 0 640 640;" xml:space="preserve">
<style type="text/css">
	.st0{fill:#222222;}
</style>
<path class="st0" d="M318.8,13c41.5,0,81.7,8.1,119.5,24.1c36.6,15.5,69.4,37.6,97.6,65.8c28.2,28.2,50.3,61,65.8,97.6
	c16,37.8,24.1,78,24.1,119.5s-8.1,81.7-24.1,119.5c-15.5,36.6-37.6,69.4-65.8,97.6c-28.2,28.2-61,50.3-97.6,65.8
	c-37.8,16-78,24.1-119.5,24.1s-81.7-8.1-119.5-24.1c-36.6-15.5-69.4-37.6-97.6-65.8s-50.3-61-65.8-97.6c-16-37.8-24.1-78-24.1-119.5
	s8.1-81.7,24.1-119.5c15.5-36.6,37.6-69.4,65.8-97.6c28.2-28.2,61-50.3,97.6-65.8C237.2,21.1,277.4,13,318.8,13 M318.8,0
	C142.1,0-1.2,143.3-1.2,320s143.3,320,320,320s320-143.3,320-320S495.6,0,318.8,0L318.8,0z"/>
<path class="st0" d="M299.9,305.1c1.6,2.8,5.1,6.2,17.4,3.8c5.2-1,21.1-4.1,28.5,9c5.1,9,3.1,20.2-4.1,26.9l1.1,2
	c1.4,2.5,0.5,5.7-2,7.1s-5.7,0.5-7.1-2l-1.1-2c-9.6,2.7-20.1-1.4-25.2-10.4c-1.4-2.5-0.5-5.7,2-7.1c2.5-1.4,5.7-0.5,7.1,2
	c3.1,5.6,10.2,7.6,15.8,4.4c5.6-3.1,7.6-10.2,4.4-15.8c-1.8-3.2-5.3-6.2-17.4-3.8c-14,2.7-23.6-0.3-28.5-9c-5.1-9-3.1-20.2,4.1-26.9
	l-1.1-2c-1.4-2.5-0.5-5.7,2-7.1s5.7-0.5,7.1,2l1.1,2c9.6-2.7,20.1,1.4,25.2,10.4c1.4,2.5,0.5,5.7-2,7.1s-5.7,0.5-7.1-2
	c-3.1-5.6-10.2-7.6-15.8-4.4C298.8,292.5,296.8,299.6,299.9,305.1z M432.2,145.1l89.6,158.9c1.4,2.5,0.5,5.7-2,7.1l-4.6,2.6
	l14.7,26.1c0.7,1.3,0.9,2.8,0.4,4.2c-0.4,1.2-1.3,2.3-2.4,2.9c-0.2,0.1-0.3,0.2-0.5,0.2l-14,6.2l16.2,28.7c0.8,1.4,0.9,3,0.3,4.5
	c-0.4,1.1-1.3,2-2.3,2.6c-0.3,0.2-0.7,0.3-1,0.4L201.4,490.6c0,0,0,0,0,0l0,0c-0.1,0-0.2,0-0.2,0.1c-0.1,0-0.1,0-0.2,0
	c-0.1,0-0.1,0-0.2,0c0,0-0.1,0-0.1,0c-0.1,0-0.1,0-0.2,0c0,0,0,0,0,0c-0.1,0-0.1,0-0.2,0c-0.1,0-0.1,0-0.2,0c0,0,0,0-0.1,0
	c0,0,0,0,0,0c-0.1,0-0.1,0-0.2,0c-0.1,0-0.1,0-0.2,0c0,0-0.1,0-0.1,0c-0.1,0-0.1,0-0.2,0c-0.1,0-0.1,0-0.2,0c0,0-0.1,0-0.1,0
	c-0.1,0-0.1,0-0.2,0c-0.1,0-0.1,0-0.2,0c-0.1,0-0.1,0-0.2,0s-0.1,0-0.2,0c0,0-0.1,0-0.1,0c-0.1,0-0.1,0-0.2-0.1c0,0-0.1,0-0.1,0
	c0,0-0.1,0-0.1,0c-0.1,0-0.1-0.1-0.2-0.1c0,0-0.1,0-0.1-0.1c0,0-0.1,0-0.1-0.1c-0.1,0-0.1-0.1-0.2-0.1c0,0-0.1,0-0.1-0.1
	c0,0-0.1,0-0.1-0.1c0,0-0.1-0.1-0.1-0.1c0,0-0.1-0.1-0.1-0.1c0,0-0.1-0.1-0.1-0.1c0,0-0.1-0.1-0.1-0.1c0,0-0.1-0.1-0.1-0.1
	c0,0-0.1-0.1-0.1-0.1c0,0-0.1-0.1-0.1-0.1c-0.1-0.1-0.1-0.1-0.1-0.2c0,0-0.1-0.1-0.1-0.1c0,0,0,0,0-0.1c-0.1-0.1-0.1-0.1-0.2-0.2
	c0,0-0.1-0.1-0.1-0.1c0,0,0,0,0,0c-0.1-0.1-0.2-0.3-0.3-0.4l-89.6-158.9c-1.4-2.5-0.5-5.7,2-7.1l317.5-179
	C427.6,141.7,430.8,142.6,432.2,145.1z M467.5,328.7c-10.6-23.8-2.7-51.9,18.6-66.8l-36.3-64.4c-23.8,10.6-51.9,2.7-66.8-18.6
	L160,304.6c10.6,23.8,2.7,51.9-18.6,66.8l36.3,64.4c23.8-10.6,51.9-2.7,66.8,18.6L467.5,328.7L467.5,328.7z M235.4,459.6
	c-12-16.4-33.8-22.4-52.5-14.6l18.9,33.6L235.4,459.6L235.4,459.6z M150.9,309.8l-33.6,18.9l18.9,33.6
	C152.6,350.3,158.7,328.5,150.9,309.8z M425.7,154.8l-33.6,18.9c12,16.4,33.8,22.4,52.5,14.6L425.7,154.8z M503.9,357.6l-217.6,95.7
	l231.1-71.8L503.9,357.6L503.9,357.6z M506.2,318.9L294.4,438.3L518,339.9L506.2,318.9z M510.2,304.6l-18.9-33.6
	c-16.4,12-22.4,33.8-14.6,52.5l29-16.3c0,0,0,0,0,0s0,0,0,0L510.2,304.6L510.2,304.6z M341.2,254.1c-1.2,2.6-0.1,5.7,2.5,7
	c10.9,5.2,19.9,13.6,25.9,24.2c15.9,28.2,5.9,64.2-22.3,80.1c-28.2,15.9-64.2,5.9-80.1-22.3c-15.9-28.2-5.9-64.2,22.3-80.1
	c10.6-6,22.6-8.5,34.7-7.3c2.9,0.3,5.4-1.8,5.7-4.7c0.3-2.9-1.8-5.4-4.7-5.7c-14.2-1.4-28.3,1.6-40.8,8.6
	c-33.3,18.8-45.1,61.1-26.3,94.3s61.1,45.1,94.3,26.3c33.3-18.8,45.1-61.1,26.3-94.3c-7-12.5-17.6-22.3-30.5-28.5
	C345.5,250.4,342.4,251.5,341.2,254.1z"/>
</svg>
