<?xml version="1.0" encoding="utf-8"?>
<!-- Generator: Adobe Illustrator 22.1.0, SVG Export Plug-In . SVG Version: 6.00 Build 0)  -->
<svg version="1.1" id="Layer_1" xmlns="http://www.w3.org/2000/svg" xmlns:xlink="http://www.w3.org/1999/xlink" x="0px" y="0px"
	 viewBox="0 0 640 640" style="enable-background:new 0 0 640 640;" xml:space="preserve">
<style type="text/css">
	.st0{fill:#222222;}
</style>
<path class="st0" d="M318.7,13c41.5,0,81.7,8.1,119.5,24.1c36.6,15.5,69.4,37.6,97.6,65.8c28.2,28.2,50.3,61,65.8,97.6
	c16,37.8,24.1,78,24.1,119.5s-8.1,81.7-24.1,119.5c-15.5,36.6-37.6,69.4-65.8,97.6c-28.2,28.2-61,50.3-97.6,65.8
	c-37.8,16-78,24.1-119.5,24.1s-81.7-8.1-119.5-24.1c-36.6-15.5-69.4-37.6-97.6-65.8s-50.3-61-65.8-97.6c-16-37.8-24.1-78-24.1-119.5
	s8.1-81.7,24.1-119.5c15.5-36.6,37.6-69.4,65.8-97.6c28.2-28.2,61-50.3,97.6-65.8C237,21.1,277.2,13,318.7,13 M318.7,0
	C142,0-1.3,143.3-1.3,320s143.3,320,320,320s320-143.3,320-320S495.4,0,318.7,0L318.7,0z"/>
<path class="st0" d="M414.2,270.2v-33.5c0-47.7-42.8-86.5-95.4-86.5c-52.6,0-95.5,38.8-95.5,86.5v33.5
	c-20.3,3.5-35.8,21.2-35.8,42.5v116.6c0,23.8,19.3,43.1,43.1,43.1h176.3c23.8,0,43.1-19.3,43.1-43.1V312.7
	C450,291.4,434.5,273.7,414.2,270.2L414.2,270.2z M235.1,236.8c0-41.1,37.5-74.6,83.6-74.6c46.1,0,83.5,33.4,83.5,74.6v32.8H235.1
	V236.8z M438,429.3c0,17.2-14,31.2-31.2,31.2H230.5c-17.2,0-31.2-14-31.2-31.2V312.7c0-17.2,14-31.2,31.2-31.2h176.3
	c17.2,0,31.2,14,31.2,31.2V429.3z M438,429.3"/>
<path class="st0" d="M318.7,317.3c-13.2,0-23.9,10.7-23.9,23.9V377c0,13.2,10.7,23.9,23.9,23.9c13.1,0,23.9-10.7,23.9-23.9v-35.8
	C342.6,328,331.8,317.3,318.7,317.3L318.7,317.3z M330.6,377c0,6.6-5.4,11.9-11.9,11.9c-6.6,0-11.9-5.4-11.9-11.9v-35.8
	c0-6.6,5.4-11.9,11.9-11.9c6.5,0,11.9,5.4,11.9,11.9V377z M330.6,377"/>
</svg>
