<?xml version="1.0" encoding="utf-8"?>
<!-- Generator: Adobe Illustrator 22.1.0, SVG Export Plug-In . SVG Version: 6.00 Build 0)  -->
<svg version="1.1" id="Layer_1" xmlns="http://www.w3.org/2000/svg" xmlns:xlink="http://www.w3.org/1999/xlink" x="0px" y="0px"
	 viewBox="0 0 640 640" style="enable-background:new 0 0 640 640;" xml:space="preserve">
<style type="text/css">
	.st0{fill:#222222;}
</style>
<path class="st0" d="M411.6,101.7H228.4c-17.6,0-32,14.4-32,32v372.4c0,17.6,14.4,32,32,32h183.3c17.7,0,32-14.3,32-32V133.8
	C443.7,116.1,429.3,101.7,411.6,101.7L411.6,101.7z M210.9,159.9h218.3v276.5H210.9V159.9z M228.4,116.3h183.3
	c9.6,0,17.5,7.9,17.5,17.5v11.6H210.9v-11.6C210.9,124.2,218.7,116.3,228.4,116.3L228.4,116.3z M411.6,523.7H228.4
	c-9.6,0-17.5-7.9-17.5-17.5v-55.3h218.3v55.3C429.1,515.8,421.3,523.7,411.6,523.7L411.6,523.7z M411.6,523.7"/>
<path class="st0" d="M320,458.2c-18.2,0-32.5,16.8-28.4,35.6c2.4,10.9,11.3,19.7,22.3,22c18.7,3.8,35.2-10.5,35.2-28.5
	C349.1,471.3,336.1,458.2,320,458.2L320,458.2z M320,501.9c-9.5,0-16.9-9.2-13.9-19.1c1.3-4.3,4.8-7.8,9.2-9.2
	c10-3.2,19.2,4.3,19.2,13.8C334.6,495.3,328,501.9,320,501.9L320,501.9z M320,501.9"/>
<path class="st0" d="M290.9,138.1H320c4,0,7.3-3.3,7.3-7.3c0-4-3.3-7.3-7.3-7.3h-29.1c-4.1,0-7.3,3.3-7.3,7.3
	C283.6,134.8,286.9,138.1,290.9,138.1L290.9,138.1z M290.9,138.1"/>
<path class="st0" d="M341.8,138.1h7.3c4,0,7.3-3.3,7.3-7.3c0-4-3.3-7.3-7.3-7.3h-7.3c-4,0-7.3,3.3-7.3,7.3
	C334.6,134.8,337.8,138.1,341.8,138.1L341.8,138.1z M341.8,138.1"/>
<path class="st0" d="M256.8,427.8v-19.4c0-31.2,21.8-59,52.6-64.1c39.6-6.5,73.9,24,73.9,62.4v29.7H256.8v5.4 M397.3,450.7l0-41.9
	c0-39.6-28.9-74.4-68.3-78.9c-46.6-5.3-86.3,31.2-86.3,76.8v44"/>
<path class="st0" d="M375.4,272.2c6.4-38.4-26.6-71.3-65-65c-23.3,3.8-42,22.6-45.9,45.9c-6.4,38.4,26.6,71.3,65,65
	C352.8,314.2,371.6,295.5,375.4,272.2z M328.3,304c-29.7,5.7-55.3-20-49.6-49.6c3.2-16.6,16.5-29.9,33.1-33.1
	c29.7-5.7,55.3,20,49.6,49.6C358.2,287.5,344.9,300.9,328.3,304z"/>
<polygon class="st0" points="354.5,383 354.5,368.8 341.5,368.8 341.5,383 327.8,383 327.8,395.8 341.5,395.8 341.5,410.1 
	354.5,410.1 354.5,395.8 368.2,395.8 368.2,383 "/>
<path class="st0" d="M320,13c41.5,0,81.7,8.1,119.5,24.1c36.6,15.5,69.4,37.6,97.6,65.8c28.2,28.2,50.3,61,65.8,97.6
	c16,37.8,24.1,78,24.1,119.5s-8.1,81.7-24.1,119.5c-15.5,36.6-37.6,69.4-65.8,97.6c-28.2,28.2-61,50.3-97.6,65.8
	c-37.8,16-78,24.1-119.5,24.1s-81.7-8.1-119.5-24.1c-36.6-15.5-69.4-37.6-97.6-65.8s-50.3-61-65.8-97.6C21.1,401.7,13,361.5,13,320
	s8.1-81.7,24.1-119.5c15.5-36.6,37.6-69.4,65.8-97.6c28.2-28.2,61-50.3,97.6-65.8C238.3,21.1,278.5,13,320,13 M320,0
	C143.3,0,0,143.3,0,320s143.3,320,320,320s320-143.3,320-320S496.7,0,320,0L320,0z"/>
</svg>
