<?xml version="1.0" encoding="utf-8"?>
<!-- Generator: Adobe Illustrator 21.1.0, SVG Export Plug-In . SVG Version: 6.00 Build 0)  -->
<svg version="1.1" id="Layer_1" xmlns="http://www.w3.org/2000/svg" xmlns:xlink="http://www.w3.org/1999/xlink" x="0px" y="0px"
	 viewBox="0 0 93 105" style="enable-background:new 0 0 93 105;" xml:space="preserve">
<style type="text/css">
	.st0{fill:#7C7C7C;}
	.svg-fill{fill:#07462A;}
	.st2{fill:#565656;}
</style>
<rect x="-114" y="95" class="st0" width="25" height="10"/>
<g>
	<rect x="-144" y="95" class="svg-fill" width="25" height="10"/>
</g>
<rect x="-84" y="95" class="st2" width="25" height="10"/>
<g>
	<path class="svg-fill" d="M46.9,84.7c-13,0-23.6-10.6-23.6-23.6c0-12.6,21.6-37.7,22.5-38.8l1.1-1.3l1.1,1.3
		c0.9,1.1,22.5,26.2,22.5,38.8C70.5,74.1,59.9,84.7,46.9,84.7z M46.9,25.6C42.4,31,26.3,51.1,26.3,61.1c0,11.4,9.2,20.6,20.6,20.6
		s20.6-9.2,20.6-20.6C67.5,51.1,51.4,31,46.9,25.6z"/>
	<path class="svg-fill" d="M46.9,76.6c-8.6,0-15.5-7-15.5-15.5c0-0.6,0.4-1,1-1c0.6,0,1,0.4,1,1c0,7.4,6.1,13.5,13.5,13.5
		c0.6,0,1,0.4,1,1S47.4,76.6,46.9,76.6z"/>
</g>
</svg>
