<?xml version="1.0" encoding="utf-8"?>
<!-- Generator: Adobe Illustrator 21.1.0, SVG Export Plug-In . SVG Version: 6.00 Build 0)  -->
<svg version="1.1" id="Layer_1" xmlns="http://www.w3.org/2000/svg" xmlns:xlink="http://www.w3.org/1999/xlink" x="0px" y="0px"
	 viewBox="0 0 93 105" style="enable-background:new 0 0 93 105;" xml:space="preserve">
<style type="text/css">
	.st0{fill:#7C7C7C;}
	.svg-fill{fill:#07462A;}
	.st2{fill:#565656;}
</style>
<rect x="-114" y="95" class="st0" width="25" height="10"/>
<g>
	<rect x="-144" y="95" class="svg-fill" width="25" height="10"/>
</g>
<rect x="-84" y="95" class="st2" width="25" height="10"/>
<path class="svg-fill" d="M25.2,49.1c-0.3,5.7-8.9,5.8-8.9,0C16.3,43.3,24.9,43.4,25.2,49.1c0.1,1.6,2.5,1.6,2.4,0
	c-0.2-3.7-3-6.9-6.9-6.9c-3.7,0-6.9,3.1-6.9,6.9c0,3.6,3,6.7,6.6,6.9c4,0.2,7-3,7.2-6.9C27.7,47.5,25.3,47.5,25.2,49.1z"/>
<path class="svg-fill" d="M76.3,49.1c-0.3,5.7-8.9,5.8-8.9,0C67.4,43.3,76,43.4,76.3,49.1c0.1,1.6,2.5,1.6,2.4,0c-0.2-3.7-3-6.9-6.9-6.9
	c-3.7,0-6.9,3.1-6.9,6.9c0,3.6,3,6.7,6.6,6.9c4,0.2,7-3,7.2-6.9C78.8,47.5,76.4,47.5,76.3,49.1z"/>
<path class="svg-fill" d="M61.7,34.8c-0.3,5.7-8.9,5.8-8.9,0C52.8,29,61.4,29.1,61.7,34.8c0.1,1.6,2.5,1.6,2.4,0c-0.2-3.7-3-6.9-6.9-6.9
	c-3.7,0-6.9,3.1-6.9,6.9c0,3.6,3,6.7,6.6,6.9c4,0.2,7-3,7.2-6.9C64.2,33.2,61.8,33.2,61.7,34.8z"/>
<path class="svg-fill" d="M40.3,34.6c-0.3,5.7-8.9,5.8-8.9,0C31.4,28.8,40,28.9,40.3,34.6c0.1,1.6,2.5,1.6,2.4,0c-0.2-3.7-3-6.9-6.9-6.9
	c-3.7,0-6.9,3.1-6.9,6.9c0,3.6,3,6.7,6.6,6.9c4,0.2,7-3,7.2-6.9C42.8,33,40.4,33,40.3,34.6z"/>
<path class="svg-fill" d="M51.6,84.5c11.1,3.4,22.3-6.6,17.6-18.1c-1.1-2.6-2.8-4.2-4.9-6c-3.6-3-4.7-6.7-7.6-10.1
	c-3.2-3.8-8.5-5.4-13.3-4.3c-6.7,1.5-8,7.3-12.1,11.9c-4.4,5-9.5,8.1-8.5,15.6c0.6,4.8,3.8,9.1,8.2,10.9c2.3,1,4.8,1.2,7.3,0.9
	c2-0.3,3.7-1.3,5.7-1.7C46.6,82.8,49,83.5,51.6,84.5c1.9,0.8,2.8-2.4,0.9-3.1c-3.4-1.3-6.7-1.8-10.2-0.7c-5.2,1.7-10.7,2.5-14.4-2.8
	c-3.6-5.3-1.8-11.1,2.7-15c3.3-2.9,4.9-6,7.4-9.5c3.1-4.3,9.3-5.9,13.9-3c3.8,2.3,4.5,7.1,7.5,10.2c3.8,4,8.7,6.5,7.4,13.1
	c-1.4,6.9-8,9.7-14.3,7.8C50.5,80.7,49.6,83.9,51.6,84.5z"/>
</svg>
