<?xml version="1.0" encoding="UTF-8"?> 
<svg xmlns="http://www.w3.org/2000/svg" id="Layer_1" data-name="Layer 1" viewBox="0 0 72 75.6">
<defs>
<style>.svg-fill{fill:#034225;}</style></defs><title>Artboard 3</title><path class="svg-fill" d="M60.71,54.63a79.12,79.12,0,0,0-6.79-7c-1.63-1.52-3.26-2.93-4.77-4.15V35.89c0-3.92-3-7.37-7.82-9.13v-5a1,1,0,0,0-1-1h-1.9V18.08a.63.63,0,0,0-.62-.63h-.8V13.68L39.54,10a.64.64,0,0,0,0-.64A.61.61,0,0,0,39,9H23.25a.63.63,0,0,0-.63.62V11a.62.62,0,0,0,.47.6L31.86,14v3.48h-.8a.63.63,0,0,0-.62.63v2.76H28.55a1,1,0,0,0-1,1v5c-4.84,1.76-7.82,5.21-7.82,9.13V55.46c0,2.11,3,3,5.61,3.46v2.4c0,3.43,7.36,5.22,14.63,5.22s14.5-1.79,14.5-5.22H52.57c0,1.12-4.44,3.29-12.57,3.29s-12.71-2.17-12.71-3.29V54.09C29.63,55.93,34.88,57,40,57c5.46,0,10.23-1,12.57-2.55v7.32l1.93-.44c0-.41,0-.83,0-1.24,2.69,2,3.94,2.5,4.58,2.5a.78.78,0,0,0,.6-.23,4.21,4.21,0,0,0,.8-.47c.29-.24.55-.51.82-.76s.53-.53.78-.8.43-.5.63-.75h0C63.54,58.72,63,57.38,60.71,54.63Zm-29-35.57h5.53v2.46H31.69Zm4.11-5v3.79H33.11V14ZM23.88,10.5v-.23h14l-1.68,2.5H32.22Zm7.05,12.26H39.4v4.12a20.68,20.68,0,0,0-9.89,0V22.76Zm-9.24,32.7V35.89c0-3.23,2.74-6.11,7.15-7.52h0a19.19,19.19,0,0,1,11.23,0h0c4.41,1.41,7.15,4.29,7.15,7.52V42l-.77-.56c-2.88-2-4.24-2.48-5-1.63h0l-2.28,3-.15.14c-.45.49-.5,1.37,1.86,4.28-1.51,0-3,0-4.54.06a32,32,0,0,0-5.8.86,13.56,13.56,0,0,0-2.88,1.06,5.9,5.9,0,0,0-1.38,1,3.31,3.31,0,0,0-.59.81A2.57,2.57,0,0,0,25.37,52h0V57C21.92,56.27,21.69,55.47,21.69,55.46ZM42.82,41.07l-1-1,1,1Zm-.26,6.18a17.55,17.55,0,0,1-2.44-3.33,26.12,26.12,0,0,1,5.39,3.67C44.53,47.44,43.55,47.33,42.56,47.25ZM27.3,52a1,1,0,0,1,.05-.21,1.62,1.62,0,0,1,.25-.34,3.49,3.49,0,0,1,.91-.68,11.1,11.1,0,0,1,2.45-1,30,30,0,0,1,5.46-1,39.92,39.92,0,0,1,11,.42c.9.78,1.81,1.6,2.72,2.43.63.59,1.22,1.16,1.79,1.72-1.84,1.25-6.18,2.38-12,2.38C32.2,55.74,27.39,53.56,27.3,52Zm27.25,5.66-.06-1.7a28.31,28.31,0,0,1,4.18,5.26,20.87,20.87,0,0,1-4.12-2.68Zm5.29,2.1-.36.43c-1.63-2.94-6.6-7.71-8.46-9.44-1-.89-1.93-1.76-2.88-2.58-3.76-3.23-5.94-4.65-7.23-5.22l1.66-1.61c1,.33,4.66,2.69,10,7.7,5,4.62,7.94,8.25,8.47,9.45-.16.15-.33.29-.48.44S60.08,59.45,59.84,59.74Z">
</path>
</svg> 